# xmcd
#
# Track frame offsets:
#	150
#	19827
#	35460
#	52435
#	69005
#	86585
#	103805
#	119627
#	139107
#	157455
#	176140
#	194507
#	209350
#	233157
#	255762
#	272940
#	289872
#
# Disc length: 4121 seconds
#
# Revision: 1
# Processed by: cddbd v1.5PL3 Copyright (c) Steve Scherf et al.
# Submitted via: CDex 1.50Beta5
#
DISCID=09101711
DTITLE=柳ジョージ&レイニーウッド - BEST SELECTION 柳ジョージ&レイニーウッド
DYEAR=1900
DGENRE=Blues -> Japanese Blues
TTITLE0=WEEPING IN THE RAIN〜雨に泣いてる〜
TTITLE1=FENCEの向こうのアメリカ
TTITLE2=漂うままに
TTITLE3=遺言〜My Will〜
TTITLE4=WHEN THE MOONLIGHT UP THE NIGHT
TTITLE5=SINFUL GIRL
TTITLE6=ヘイ・ダーリン
TTITLE7=同じ時代に
TTITLE8=「祭りばやしが聞こえる」のテーマ
TTITLE9=微笑の法則〜スマイル・オン・ミー〜
TTITLE10=眠りのない街
TTITLE11=酔って候
TTITLE12=本牧綺談
TTITLE13=プリズナー
TTITLE14=CROSS EYED WOMAN
TTITLE15=時は流れて
TTITLE16=雨に泣いてる・・・
EXTD=
EXTT0=
EXTT1=
EXTT2=
EXTT3=
EXTT4=
EXTT5=
EXTT6=
EXTT7=
EXTT8=
EXTT9=
EXTT10=
EXTT11=
EXTT12=
EXTT13=
EXTT14=
EXTT15=
EXTT16=
PLAYORDER=
